<svg xmlns="http://www.w3.org/2000/svg" xmlns:xlink="http://www.w3.org/1999/xlink" width="400" zoomAndPan="magnify" viewBox="0 0 300 149.999998" height="200" preserveAspectRatio="xMidYMid meet" version="1.0"><defs><g/><clipPath id="898fad8f86"><path d="M 44.519531 65.328125 L 85 65.328125 L 85 84.828125 L 44.519531 84.828125 Z M 44.519531 65.328125 " clip-rule="nonzero"/></clipPath></defs><g clip-path="url(#898fad8f86)"><path fill="#e6192c" d="M 75.179688 84.664062 L 54.273438 84.664062 C 48.933594 84.664062 44.605469 80.335938 44.605469 74.996094 C 44.605469 69.65625 48.933594 65.324219 54.273438 65.324219 L 75.179688 65.324219 C 80.519531 65.324219 84.851562 69.65625 84.851562 74.996094 C 84.851562 80.335938 80.519531 84.664062 75.179688 84.664062 " fill-opacity="1" fill-rule="nonzero"/></g><path fill="#ffffff" d="M 83.21875 74.996094 C 83.21875 79.503906 79.5625 83.160156 75.050781 83.160156 C 70.539062 83.160156 66.882812 79.503906 66.882812 74.996094 C 66.882812 70.484375 70.539062 66.828125 75.050781 66.828125 C 79.5625 66.828125 83.21875 70.484375 83.21875 74.996094 " fill-opacity="1" fill-rule="nonzero"/><g fill="#000000" fill-opacity="1"><g transform="translate(89.356652, 85.410928)"><g><path d="M 2.734375 -15.59375 L 2.734375 -18.90625 C 2.753906 -21.226562 3.300781 -23.085938 4.375 -24.484375 C 5.445312 -25.890625 6.9375 -26.59375 8.84375 -26.59375 C 9.65625 -26.59375 10.429688 -26.472656 11.171875 -26.234375 C 11.910156 -26.003906 12.441406 -25.769531 12.765625 -25.53125 L 13.28125 -25.1875 L 11.390625 -21.390625 C 10.910156 -21.679688 10.375 -21.828125 9.78125 -21.828125 C 9.113281 -21.828125 8.664062 -21.597656 8.4375 -21.140625 C 8.21875 -20.679688 8.109375 -19.882812 8.109375 -18.75 L 8.109375 -15.59375 L 11.703125 -15.59375 L 11.703125 -11.484375 L 8.109375 -11.484375 L 8.109375 0 L 2.734375 0 L 2.734375 -11.484375 L 0.484375 -11.484375 L 0.484375 -15.59375 Z M 2.734375 -15.59375 "/></g></g></g><g fill="#000000" fill-opacity="1"><g transform="translate(100.690892, 85.410928)"><g><path d="M 2.890625 -1.921875 C 1.429688 -3.515625 0.703125 -5.46875 0.703125 -7.78125 C 0.703125 -10.09375 1.429688 -12.046875 2.890625 -13.640625 C 4.347656 -15.242188 6.203125 -16.046875 8.453125 -16.046875 C 10.515625 -16.046875 12.210938 -15.394531 13.546875 -14.09375 L 13.546875 -15.59375 L 18.9375 -15.59375 L 18.9375 0 L 13.609375 0 L 13.609375 -1.765625 L 13.546875 -1.765625 C 12.210938 -0.285156 10.515625 0.453125 8.453125 0.453125 C 6.203125 0.453125 4.347656 -0.335938 2.890625 -1.921875 Z M 7.453125 -10.421875 C 6.753906 -9.734375 6.40625 -8.851562 6.40625 -7.78125 C 6.40625 -6.707031 6.738281 -5.832031 7.40625 -5.15625 C 8.082031 -4.476562 8.96875 -4.140625 10.0625 -4.140625 C 11.113281 -4.140625 11.976562 -4.484375 12.65625 -5.171875 C 13.332031 -5.859375 13.671875 -6.726562 13.671875 -7.78125 C 13.671875 -8.851562 13.320312 -9.734375 12.625 -10.421875 C 11.925781 -11.109375 11.070312 -11.453125 10.0625 -11.453125 C 9.03125 -11.453125 8.160156 -11.109375 7.453125 -10.421875 Z M 7.453125 -10.421875 "/></g></g></g><g fill="#000000" fill-opacity="1"><g transform="translate(121.445037, 85.410928)"><g><path d="M 19.625 -15.59375 L 12.21875 -8.140625 L 20.359375 0 L 13.4375 0 L 7.203125 -6.234375 L 7.203125 0 L 1.828125 0 L 1.828125 -26.140625 L 7.203125 -26.140625 L 7.203125 -10.15625 L 12.640625 -15.59375 Z M 19.625 -15.59375 "/></g></g></g><g fill="#000000" fill-opacity="1"><g transform="translate(141.074869, 85.410928)"><g><path d="M 2.734375 -15.59375 L 2.734375 -21.390625 L 8.109375 -21.390625 L 8.109375 -15.59375 L 11.390625 -15.59375 L 11.390625 -11.484375 L 8.109375 -11.484375 L 8.109375 -6.53125 C 8.109375 -5.09375 8.515625 -4.375 9.328125 -4.375 C 9.535156 -4.375 9.75 -4.414062 9.96875 -4.5 C 10.1875 -4.582031 10.359375 -4.660156 10.484375 -4.734375 L 10.671875 -4.859375 L 12 -0.515625 C 10.84375 0.128906 9.523438 0.453125 8.046875 0.453125 C 7.035156 0.453125 6.164062 0.273438 5.4375 -0.078125 C 4.707031 -0.429688 4.15625 -0.90625 3.78125 -1.5 C 3.40625 -2.101562 3.132812 -2.734375 2.96875 -3.390625 C 2.8125 -4.046875 2.734375 -4.75 2.734375 -5.5 L 2.734375 -11.484375 L 0.484375 -11.484375 L 0.484375 -15.59375 Z M 2.734375 -15.59375 "/></g></g></g><g fill="#000000" fill-opacity="1"><g transform="translate(153.077638, 85.410928)"><g><path d="M 6.90625 -15.59375 L 6.90625 -8.171875 C 6.90625 -6.628906 7.132812 -5.535156 7.59375 -4.890625 C 8.0625 -4.242188 8.851562 -3.921875 9.96875 -3.921875 C 11.082031 -3.921875 11.867188 -4.242188 12.328125 -4.890625 C 12.796875 -5.535156 13.03125 -6.628906 13.03125 -8.171875 L 13.03125 -15.59375 L 18.421875 -15.59375 L 18.421875 -6.875 C 18.421875 -4.28125 17.742188 -2.410156 16.390625 -1.265625 C 15.046875 -0.117188 12.90625 0.453125 9.96875 0.453125 C 7.03125 0.453125 4.882812 -0.117188 3.53125 -1.265625 C 2.1875 -2.410156 1.515625 -4.28125 1.515625 -6.875 L 1.515625 -15.59375 Z M 6.90625 -15.59375 "/></g></g></g><g fill="#000000" fill-opacity="1"><g transform="translate(173.011345, 85.410928)"><g><path d="M 1.828125 0 L 1.828125 -15.59375 L 7.203125 -15.59375 L 7.203125 -13.34375 L 7.265625 -13.34375 C 7.304688 -13.425781 7.367188 -13.523438 7.453125 -13.640625 C 7.546875 -13.765625 7.742188 -13.976562 8.046875 -14.28125 C 8.359375 -14.582031 8.6875 -14.851562 9.03125 -15.09375 C 9.375 -15.34375 9.816406 -15.5625 10.359375 -15.75 C 10.910156 -15.945312 11.46875 -16.046875 12.03125 -16.046875 C 12.625 -16.046875 13.203125 -15.960938 13.765625 -15.796875 C 14.335938 -15.640625 14.753906 -15.476562 15.015625 -15.3125 L 15.4375 -15.078125 L 13.1875 -10.515625 C 12.519531 -11.078125 11.585938 -11.359375 10.390625 -11.359375 C 9.742188 -11.359375 9.1875 -11.21875 8.71875 -10.9375 C 8.25 -10.65625 7.921875 -10.3125 7.734375 -9.90625 C 7.546875 -9.5 7.410156 -9.15625 7.328125 -8.875 C 7.242188 -8.59375 7.203125 -8.367188 7.203125 -8.203125 L 7.203125 0 Z M 1.828125 0 "/></g></g></g><g fill="#e6192c" fill-opacity="1"><g transform="translate(186.481647, 85.410928)"><g><path d="M 5.28125 -6.5 C 6.257812 -6.5 7.085938 -6.160156 7.765625 -5.484375 C 8.441406 -4.804688 8.78125 -3.984375 8.78125 -3.015625 C 8.78125 -2.054688 8.441406 -1.238281 7.765625 -0.5625 C 7.085938 0.113281 6.257812 0.453125 5.28125 0.453125 C 4.332031 0.453125 3.519531 0.113281 2.84375 -0.5625 C 2.164062 -1.238281 1.828125 -2.054688 1.828125 -3.015625 C 1.828125 -3.984375 2.164062 -4.804688 2.84375 -5.484375 C 3.519531 -6.160156 4.332031 -6.5 5.28125 -6.5 Z M 5.28125 -6.5 "/></g></g></g><g fill="#000000" fill-opacity="1"><g transform="translate(197.087115, 85.410928)"><g><path d="M 2.890625 -1.921875 C 1.429688 -3.515625 0.703125 -5.46875 0.703125 -7.78125 C 0.703125 -10.09375 1.429688 -12.046875 2.890625 -13.640625 C 4.347656 -15.242188 6.203125 -16.046875 8.453125 -16.046875 C 10.515625 -16.046875 12.210938 -15.394531 13.546875 -14.09375 L 13.546875 -15.59375 L 18.9375 -15.59375 L 18.9375 0 L 13.609375 0 L 13.609375 -1.765625 L 13.546875 -1.765625 C 12.210938 -0.285156 10.515625 0.453125 8.453125 0.453125 C 6.203125 0.453125 4.347656 -0.335938 2.890625 -1.921875 Z M 7.453125 -10.421875 C 6.753906 -9.734375 6.40625 -8.851562 6.40625 -7.78125 C 6.40625 -6.707031 6.738281 -5.832031 7.40625 -5.15625 C 8.082031 -4.476562 8.96875 -4.140625 10.0625 -4.140625 C 11.113281 -4.140625 11.976562 -4.484375 12.65625 -5.171875 C 13.332031 -5.859375 13.671875 -6.726562 13.671875 -7.78125 C 13.671875 -8.851562 13.320312 -9.734375 12.625 -10.421875 C 11.925781 -11.109375 11.070312 -11.453125 10.0625 -11.453125 C 9.03125 -11.453125 8.160156 -11.109375 7.453125 -10.421875 Z M 7.453125 -10.421875 "/></g></g></g><g fill="#000000" fill-opacity="1"><g transform="translate(217.84126, 85.410928)"><g><path d="M 17.875 -13.65625 C 19.332031 -12.070312 20.0625 -10.125 20.0625 -7.8125 C 20.0625 -5.5 19.332031 -3.539062 17.875 -1.9375 C 16.414062 -0.34375 14.5625 0.453125 12.3125 0.453125 C 10.238281 0.453125 8.535156 -0.191406 7.203125 -1.484375 L 7.203125 7.90625 L 1.828125 7.90625 L 1.828125 -15.59375 L 7.140625 -15.59375 L 7.140625 -13.828125 L 7.203125 -13.828125 C 8.535156 -15.304688 10.238281 -16.046875 12.3125 -16.046875 C 14.5625 -16.046875 16.414062 -15.25 17.875 -13.65625 Z M 13.296875 -5.171875 C 13.992188 -5.859375 14.34375 -6.738281 14.34375 -7.8125 C 14.34375 -8.882812 14.007812 -9.757812 13.34375 -10.4375 C 12.675781 -11.113281 11.796875 -11.453125 10.703125 -11.453125 C 9.648438 -11.453125 8.78125 -11.109375 8.09375 -10.421875 C 7.414062 -9.734375 7.078125 -8.863281 7.078125 -7.8125 C 7.078125 -6.738281 7.425781 -5.859375 8.125 -5.171875 C 8.820312 -4.484375 9.679688 -4.140625 10.703125 -4.140625 C 11.734375 -4.140625 12.597656 -4.484375 13.296875 -5.171875 Z M 13.296875 -5.171875 "/></g></g></g><g fill="#000000" fill-opacity="1"><g transform="translate(238.595405, 85.410928)"><g><path d="M 17.875 -13.65625 C 19.332031 -12.070312 20.0625 -10.125 20.0625 -7.8125 C 20.0625 -5.5 19.332031 -3.539062 17.875 -1.9375 C 16.414062 -0.34375 14.5625 0.453125 12.3125 0.453125 C 10.238281 0.453125 8.535156 -0.191406 7.203125 -1.484375 L 7.203125 7.90625 L 1.828125 7.90625 L 1.828125 -15.59375 L 7.140625 -15.59375 L 7.140625 -13.828125 L 7.203125 -13.828125 C 8.535156 -15.304688 10.238281 -16.046875 12.3125 -16.046875 C 14.5625 -16.046875 16.414062 -15.25 17.875 -13.65625 Z M 13.296875 -5.171875 C 13.992188 -5.859375 14.34375 -6.738281 14.34375 -7.8125 C 14.34375 -8.882812 14.007812 -9.757812 13.34375 -10.4375 C 12.675781 -11.113281 11.796875 -11.453125 10.703125 -11.453125 C 9.648438 -11.453125 8.78125 -11.109375 8.09375 -10.421875 C 7.414062 -9.734375 7.078125 -8.863281 7.078125 -7.8125 C 7.078125 -6.738281 7.425781 -5.859375 8.125 -5.171875 C 8.820312 -4.484375 9.679688 -4.140625 10.703125 -4.140625 C 11.734375 -4.140625 12.597656 -4.484375 13.296875 -5.171875 Z M 13.296875 -5.171875 "/></g></g></g></svg>