<svg xmlns="http://www.w3.org/2000/svg" xmlns:xlink="http://www.w3.org/1999/xlink" width="40" zoomAndPan="magnify" viewBox="0 0 30 30.000001" height="40" preserveAspectRatio="xMidYMid meet" version="1.0"><defs><g/><clipPath id="cbca117c22"><path d="M 0.632812 0.238281 L 2 0.238281 L 2 2.792969 L 0.632812 2.792969 Z M 0.632812 0.238281 " clip-rule="nonzero"/></clipPath><clipPath id="6a3b22bef9"><path d="M 2 1 L 3 1 L 3 2.792969 L 2 2.792969 Z M 2 1 " clip-rule="nonzero"/></clipPath><clipPath id="89f0e17ea9"><path d="M 3 0.238281 L 5 0.238281 L 5 2.792969 L 3 2.792969 Z M 3 0.238281 " clip-rule="nonzero"/></clipPath><clipPath id="3b72581265"><path d="M 4 0.238281 L 5 0.238281 L 5 2.792969 L 4 2.792969 Z M 4 0.238281 " clip-rule="nonzero"/></clipPath><clipPath id="d16a635457"><path d="M 4 0.238281 L 6 0.238281 L 6 2.792969 L 4 2.792969 Z M 4 0.238281 " clip-rule="nonzero"/></clipPath><clipPath id="1751034173"><path d="M 5 0.238281 L 6 0.238281 L 6 2.792969 L 5 2.792969 Z M 5 0.238281 " clip-rule="nonzero"/></clipPath><clipPath id="755f8b5aa4"><path d="M 5 0.238281 L 7 0.238281 L 7 2.792969 L 5 2.792969 Z M 5 0.238281 " clip-rule="nonzero"/></clipPath><clipPath id="7e0bba2729"><path d="M 6 1 L 7.367188 1 L 7.367188 2.792969 L 6 2.792969 Z M 6 1 " clip-rule="nonzero"/></clipPath><clipPath id="57465aed54"><rect x="0" width="8" y="0" height="3"/></clipPath><clipPath id="61ce1a718b"><path d="M 4.441406 9.460938 L 25.488281 9.460938 L 25.488281 19.621094 L 4.441406 19.621094 Z M 4.441406 9.460938 " clip-rule="nonzero"/></clipPath></defs><g transform="matrix(1, 0, 0, 1, 11, 13)"><g clip-path="url(#57465aed54)"><g clip-path="url(#cbca117c22)"><g fill="#000000" fill-opacity="1"><g transform="translate(0.750247, 2.161293)"><g><path d="M 0.609375 0.015625 C 0.503906 0.015625 0.410156 -0.00390625 0.328125 -0.046875 C 0.253906 -0.0859375 0.191406 -0.140625 0.140625 -0.203125 C 0.0976562 -0.273438 0.078125 -0.351562 0.078125 -0.4375 L 0.25 -0.4375 C 0.257812 -0.351562 0.296875 -0.28125 0.359375 -0.21875 C 0.421875 -0.164062 0.503906 -0.140625 0.609375 -0.140625 C 0.703125 -0.140625 0.773438 -0.160156 0.828125 -0.203125 C 0.890625 -0.242188 0.921875 -0.300781 0.921875 -0.375 C 0.921875 -0.425781 0.90625 -0.46875 0.875 -0.5 C 0.84375 -0.53125 0.796875 -0.550781 0.734375 -0.5625 C 0.679688 -0.582031 0.617188 -0.597656 0.546875 -0.609375 C 0.492188 -0.617188 0.441406 -0.628906 0.390625 -0.640625 C 0.335938 -0.660156 0.289062 -0.679688 0.25 -0.703125 C 0.207031 -0.734375 0.171875 -0.769531 0.140625 -0.8125 C 0.117188 -0.863281 0.109375 -0.921875 0.109375 -0.984375 C 0.109375 -1.054688 0.128906 -1.117188 0.171875 -1.171875 C 0.210938 -1.234375 0.265625 -1.28125 0.328125 -1.3125 C 0.398438 -1.351562 0.484375 -1.375 0.578125 -1.375 C 0.671875 -1.375 0.753906 -1.351562 0.828125 -1.3125 C 0.910156 -1.28125 0.96875 -1.234375 1 -1.171875 C 1.039062 -1.109375 1.066406 -1.035156 1.078125 -0.953125 L 0.90625 -0.953125 C 0.894531 -1.035156 0.859375 -1.097656 0.796875 -1.140625 C 0.742188 -1.191406 0.671875 -1.21875 0.578125 -1.21875 C 0.484375 -1.21875 0.410156 -1.195312 0.359375 -1.15625 C 0.304688 -1.113281 0.28125 -1.054688 0.28125 -0.984375 C 0.28125 -0.929688 0.296875 -0.890625 0.328125 -0.859375 C 0.359375 -0.835938 0.398438 -0.816406 0.453125 -0.796875 C 0.515625 -0.785156 0.578125 -0.773438 0.640625 -0.765625 C 0.703125 -0.753906 0.757812 -0.738281 0.8125 -0.71875 C 0.863281 -0.707031 0.910156 -0.6875 0.953125 -0.65625 C 0.992188 -0.632812 1.023438 -0.597656 1.046875 -0.546875 C 1.078125 -0.503906 1.09375 -0.453125 1.09375 -0.390625 C 1.09375 -0.304688 1.070312 -0.234375 1.03125 -0.171875 C 0.988281 -0.117188 0.929688 -0.0703125 0.859375 -0.03125 C 0.785156 0 0.703125 0.015625 0.609375 0.015625 Z M 0.609375 0.015625 "/></g></g></g></g><g clip-path="url(#6a3b22bef9)"><g fill="#000000" fill-opacity="1"><g transform="translate(1.925097, 2.161293)"><g><path d="M 0.09375 -0.4375 L 0.09375 -0.984375 L 0.25 -0.984375 L 0.25 -0.453125 C 0.25 -0.347656 0.269531 -0.269531 0.3125 -0.21875 C 0.363281 -0.164062 0.429688 -0.140625 0.515625 -0.140625 C 0.597656 -0.140625 0.664062 -0.171875 0.71875 -0.234375 C 0.769531 -0.296875 0.796875 -0.382812 0.796875 -0.5 L 0.796875 -0.984375 L 0.953125 -0.984375 L 0.953125 0 L 0.828125 0 L 0.796875 -0.125 C 0.765625 -0.09375 0.722656 -0.0625 0.671875 -0.03125 C 0.628906 0 0.566406 0.015625 0.484375 0.015625 C 0.410156 0.015625 0.34375 0 0.28125 -0.03125 C 0.226562 -0.0625 0.179688 -0.109375 0.140625 -0.171875 C 0.109375 -0.242188 0.09375 -0.332031 0.09375 -0.4375 Z M 0.09375 -0.4375 "/></g></g></g></g><g clip-path="url(#89f0e17ea9)"><g fill="#000000" fill-opacity="1"><g transform="translate(2.991557, 2.161293)"><g><path d="M 0.109375 -1.359375 L 0.265625 -1.359375 L 0.265625 -0.828125 C 0.296875 -0.867188 0.335938 -0.90625 0.390625 -0.9375 C 0.453125 -0.976562 0.523438 -1 0.609375 -1 C 0.703125 -1 0.78125 -0.976562 0.84375 -0.9375 C 0.914062 -0.894531 0.972656 -0.835938 1.015625 -0.765625 C 1.054688 -0.691406 1.078125 -0.601562 1.078125 -0.5 C 1.078125 -0.394531 1.054688 -0.300781 1.015625 -0.21875 C 0.972656 -0.144531 0.914062 -0.0859375 0.84375 -0.046875 C 0.78125 -0.00390625 0.703125 0.015625 0.609375 0.015625 C 0.523438 0.015625 0.453125 0 0.390625 -0.03125 C 0.335938 -0.0625 0.296875 -0.101562 0.265625 -0.15625 L 0.25 0 L 0.109375 0 Z M 0.59375 -0.859375 C 0.53125 -0.859375 0.472656 -0.84375 0.421875 -0.8125 C 0.367188 -0.78125 0.328125 -0.738281 0.296875 -0.6875 C 0.273438 -0.632812 0.265625 -0.570312 0.265625 -0.5 C 0.265625 -0.425781 0.273438 -0.359375 0.296875 -0.296875 C 0.328125 -0.242188 0.367188 -0.203125 0.421875 -0.171875 C 0.472656 -0.140625 0.53125 -0.125 0.59375 -0.125 C 0.65625 -0.125 0.710938 -0.140625 0.765625 -0.171875 C 0.816406 -0.203125 0.851562 -0.242188 0.875 -0.296875 C 0.90625 -0.359375 0.921875 -0.425781 0.921875 -0.5 C 0.921875 -0.570312 0.90625 -0.632812 0.875 -0.6875 C 0.851562 -0.738281 0.816406 -0.78125 0.765625 -0.8125 C 0.710938 -0.84375 0.65625 -0.859375 0.59375 -0.859375 Z M 0.59375 -0.859375 "/></g></g></g></g><g clip-path="url(#3b72581265)"><g fill="#000000" fill-opacity="1"><g transform="translate(4.133501, 2.161293)"><g><path d="M 0.1875 -0.25 L 0.1875 -0.84375 L 0 -0.84375 L 0 -0.984375 L 0.1875 -0.984375 L 0.1875 -1.265625 L 0.34375 -1.265625 L 0.34375 -0.984375 L 0.59375 -0.984375 L 0.59375 -0.84375 L 0.34375 -0.84375 L 0.34375 -0.265625 C 0.34375 -0.222656 0.347656 -0.191406 0.359375 -0.171875 C 0.378906 -0.148438 0.410156 -0.140625 0.453125 -0.140625 L 0.609375 -0.140625 L 0.609375 0 L 0.4375 0 C 0.34375 0 0.273438 -0.0195312 0.234375 -0.0625 C 0.203125 -0.101562 0.1875 -0.164062 0.1875 -0.25 Z M 0.1875 -0.25 "/></g></g></g></g><g clip-path="url(#d16a635457)"><g fill="#000000" fill-opacity="1"><g transform="translate(4.774152, 2.161293)"><g><path d="M 0.109375 -0.984375 L 0.265625 -0.984375 L 0.265625 0 L 0.109375 0 Z M 0.1875 -1.15625 C 0.15625 -1.15625 0.128906 -1.164062 0.109375 -1.1875 C 0.0976562 -1.207031 0.09375 -1.226562 0.09375 -1.25 C 0.09375 -1.28125 0.0976562 -1.304688 0.109375 -1.328125 C 0.128906 -1.347656 0.15625 -1.359375 0.1875 -1.359375 C 0.21875 -1.359375 0.238281 -1.347656 0.25 -1.328125 C 0.269531 -1.304688 0.28125 -1.28125 0.28125 -1.25 C 0.28125 -1.226562 0.269531 -1.207031 0.25 -1.1875 C 0.238281 -1.164062 0.21875 -1.15625 0.1875 -1.15625 Z M 0.1875 -1.15625 "/></g></g></g></g><g clip-path="url(#1751034173)"><g fill="#000000" fill-opacity="1"><g transform="translate(5.14964, 2.161293)"><g><path d="M 0.1875 -0.25 L 0.1875 -0.84375 L 0 -0.84375 L 0 -0.984375 L 0.1875 -0.984375 L 0.1875 -1.265625 L 0.34375 -1.265625 L 0.34375 -0.984375 L 0.59375 -0.984375 L 0.59375 -0.84375 L 0.34375 -0.84375 L 0.34375 -0.265625 C 0.34375 -0.222656 0.347656 -0.191406 0.359375 -0.171875 C 0.378906 -0.148438 0.410156 -0.140625 0.453125 -0.140625 L 0.609375 -0.140625 L 0.609375 0 L 0.4375 0 C 0.34375 0 0.273438 -0.0195312 0.234375 -0.0625 C 0.203125 -0.101562 0.1875 -0.164062 0.1875 -0.25 Z M 0.1875 -0.25 "/></g></g></g></g><g clip-path="url(#755f8b5aa4)"><g fill="#000000" fill-opacity="1"><g transform="translate(5.79029, 2.161293)"><g><path d="M 0.109375 -1.359375 L 0.265625 -1.359375 L 0.265625 0 L 0.109375 0 Z M 0.109375 -1.359375 "/></g></g></g></g><g clip-path="url(#7e0bba2729)"><g fill="#000000" fill-opacity="1"><g transform="translate(6.165778, 2.161293)"><g><path d="M 0.5625 0.015625 C 0.46875 0.015625 0.382812 -0.00390625 0.3125 -0.046875 C 0.238281 -0.0859375 0.179688 -0.144531 0.140625 -0.21875 C 0.0976562 -0.300781 0.078125 -0.394531 0.078125 -0.5 C 0.078125 -0.59375 0.09375 -0.675781 0.125 -0.75 C 0.164062 -0.832031 0.222656 -0.894531 0.296875 -0.9375 C 0.367188 -0.976562 0.453125 -1 0.546875 -1 C 0.679688 -1 0.789062 -0.957031 0.875 -0.875 C 0.957031 -0.789062 1.003906 -0.675781 1.015625 -0.53125 C 1.015625 -0.519531 1.015625 -0.507812 1.015625 -0.5 C 1.015625 -0.488281 1.007812 -0.476562 1 -0.46875 L 0.234375 -0.46875 L 0.234375 -0.453125 C 0.242188 -0.359375 0.273438 -0.28125 0.328125 -0.21875 C 0.378906 -0.15625 0.453125 -0.125 0.546875 -0.125 C 0.617188 -0.125 0.679688 -0.140625 0.734375 -0.171875 C 0.785156 -0.210938 0.816406 -0.265625 0.828125 -0.328125 L 1 -0.328125 C 0.976562 -0.265625 0.945312 -0.207031 0.90625 -0.15625 C 0.875 -0.101562 0.828125 -0.0625 0.765625 -0.03125 C 0.703125 0 0.632812 0.015625 0.5625 0.015625 Z M 0.84375 -0.59375 C 0.832031 -0.675781 0.800781 -0.738281 0.75 -0.78125 C 0.695312 -0.832031 0.628906 -0.859375 0.546875 -0.859375 C 0.492188 -0.859375 0.445312 -0.847656 0.40625 -0.828125 C 0.363281 -0.804688 0.328125 -0.773438 0.296875 -0.734375 C 0.265625 -0.691406 0.25 -0.644531 0.25 -0.59375 Z M 0.84375 -0.59375 "/></g></g></g></g></g></g><g clip-path="url(#61ce1a718b)"><path fill="#00bf63" d="M 20.464844 19.566406 L 9.539062 19.566406 C 6.746094 19.566406 4.484375 17.304688 4.484375 14.511719 C 4.484375 11.722656 6.746094 9.460938 9.539062 9.460938 L 20.464844 9.460938 C 23.253906 9.460938 25.515625 11.722656 25.515625 14.511719 C 25.515625 17.304688 23.253906 19.566406 20.464844 19.566406 " fill-opacity="1" fill-rule="nonzero"/></g><path fill="#ffffff" d="M 24.664062 14.511719 C 24.664062 16.871094 22.753906 18.78125 20.394531 18.78125 C 18.039062 18.78125 16.128906 16.871094 16.128906 14.511719 C 16.128906 12.15625 18.039062 10.246094 20.394531 10.246094 C 22.753906 10.246094 24.664062 12.15625 24.664062 14.511719 " fill-opacity="1" fill-rule="nonzero"/></svg>